# xmcd
#
# Track frame offsets:
#	180
#	13294
#	27480
#	41029
#	54557
#	69004
#	83500
#	97263
#	109764
#	122089
#	132727
#	145483
#	158292
#	170331
#	183291
#	195157
#	208154
#	220050
#
# Disc length: 3139 seconds
#
# Revision: 0
# Processed by: cddbd v1.5.2PL0 Copyright (c) Steve Scherf et al.
# Submitted via: audiograbber 1.83.01
#
DISCID=fc0c4112
DTITLE=Various Artist - Blues Festival CD 6
DYEAR=2005
DGENRE=Blues
TTITLE0=Roosevelt Sykes - The HoneyDripper
TTITLE1=John Lee Hooker - Grinder Man
TTITLE2=Bessie Smith - Sobbin' Hearted Blues
TTITLE3=John Lee Hooker - Bluebird
TTITLE4=Leadbelly - Easy Rider
TTITLE5=John Lee Hooker - 609 Boogie
TTITLE6=Arthur Big Boy Crudup - Dirt Road Blues
TTITLE7=John Lee Hooker - Weeping Willow Boogie
TTITLE8=Lonnie Johnson - Mr. Johnson's Swing
TTITLE9=John Lee Hooker - I want To Shout
TTITLE10=Arthur Big Boy Crudup - Give Me A 32-20
TTITLE11=Leadbelly - Packin'trunk
TTITLE12=John Lee Hooker - Burning Hell
TTITLE13=John Lee Williamson - Hoo Doo Hoodoo
TTITLE14=Big Joe Turner - Rock Of Gibraltar
TTITLE15=Brownie Mc Ghee - Back Home Blues
TTITLE16=Lightnin' Hopkins - Come Back Baby
TTITLE17=Memphis Slim - Born With the Blues
EXTD=
EXTT0=
EXTT1=
EXTT2=
EXTT3=
EXTT4=
EXTT5=
EXTT6=
EXTT7=
EXTT8=
EXTT9=
EXTT10=
EXTT11=
EXTT12=
EXTT13=
EXTT14=
EXTT15=
EXTT16=
EXTT17=
PLAYORDER=
